<?xml version="1.0" encoding="utf-8"?>
<!-- Generator: Adobe Illustrator 15.0.0, SVG Export Plug-In . SVG Version: 6.00 Build 0)  -->
<!DOCTYPE svg PUBLIC "-//W3C//DTD SVG 1.1//EN" "http://www.w3.org/Graphics/SVG/1.1/DTD/svg11.dtd">
<svg version="1.1" id="レイヤー_1" xmlns="http://www.w3.org/2000/svg" xmlns:xlink="http://www.w3.org/1999/xlink" x="0px"
	 y="0px" width="1024px" height="1024px" viewBox="0 0 1024 1024" enable-background="new 0 0 1024 1024" xml:space="preserve">
<path d="M510.007,1011.227c-275.701,0-500.006-224.305-500.006-500.011c0-275.695,224.305-500,500.006-500
	s499.995,224.305,499.995,500C1009.99,786.923,785.696,1011.227,510.007,1011.227z M510.007,70.255
	c-243.143,0-440.978,197.817-440.978,440.972c0,243.16,197.822,440.996,440.978,440.996c243.154,0,440.967-197.836,440.967-440.996
	C950.963,268.084,753.15,70.255,510.007,70.255z"/>
<g>
	<path d="M355.233,406.562c-18.02,0-33.364,21.836-39.324,52.462l28.269,28.263l-28.269,28.247
		c5.982,30.643,21.306,52.479,39.324,52.479c23.208,0,42.034-36.154,42.034-80.725C397.267,442.7,378.463,406.562,355.233,406.562z"
		/>
	<path d="M662.072,406.562c-18.02,0-33.353,21.836-39.323,52.462l28.269,28.263l-28.269,28.247
		c5.972,30.643,21.305,52.479,39.323,52.479c23.208,0,42.023-36.154,42.023-80.725C704.084,442.7,685.27,406.562,662.072,406.562z"
		/>
</g>
<g>
	<path d="M509.985,895.87c-121.227,0-235.2-73.115-297.503-190.825c-5.486-10.376-4.312-23.012,2.998-32.188
		c26.471-33.227,100.774-44.455,294.504-44.455c193.767,0,268.08,11.229,294.539,44.455c7.31,9.178,8.496,21.812,3.009,32.188
		C745.231,822.755,631.198,895.87,509.985,895.87z M278.981,702.069c54.187,84.898,138.784,134.772,230.992,134.772
		c92.254,0,176.898-49.92,231.096-134.888c-27.854-7.633-91.987-14.503-231.096-14.503
		C371.236,687.452,307.112,694.3,278.981,702.069z"/>
</g>
</svg>
