<?xml version="1.0" encoding="utf-8"?>
<!-- Generator: Adobe Illustrator 15.0.0, SVG Export Plug-In . SVG Version: 6.00 Build 0)  -->
<!DOCTYPE svg PUBLIC "-//W3C//DTD SVG 1.1//EN" "http://www.w3.org/Graphics/SVG/1.1/DTD/svg11.dtd">
<svg version="1.1" id="レイヤー_1" xmlns="http://www.w3.org/2000/svg" xmlns:xlink="http://www.w3.org/1999/xlink" x="0px"
	 y="0px" width="1024px" height="1024px" viewBox="0 0 1024 1024" enable-background="new 0 0 1024 1024" xml:space="preserve">
<g>
	<path d="M513.419,854.268c-116.349,0-222.354-47.036-283.525-125.802c-10.007-12.865-7.667-31.403,5.188-41.41
		c12.877-10.008,31.416-7.679,41.411,5.188c49.343,63.522,140.119,102.997,236.902,102.997c96.795,0,187.584-39.475,236.903-102.997
		c9.982-12.866,28.533-15.195,41.411-5.188c12.877,10.007,15.206,28.545,5.198,41.41
		C735.748,807.231,629.767,854.268,513.419,854.268z"/>
</g>
<path d="M513.419,1010.343c-275.709,0-500.011-224.278-500.011-499.987c0-275.691,224.302-499.995,500.011-499.995
	c275.697,0,499.988,224.303,499.988,499.995C1013.406,786.064,789.115,1010.343,513.419,1010.343z M513.419,69.399
	c-243.164,0-440.984,197.81-440.984,440.967c0,243.164,197.821,440.973,440.984,440.973c243.141,0,440.961-197.809,440.961-440.973
	C954.38,267.209,756.56,69.399,513.419,69.399z"/>
<g>
	<g>
		<path d="M253.654,513.767c-5.753,0-11.586-1.688-16.717-5.204c-13.419-9.258-16.797-27.629-7.551-41.048
			c23.945-34.759,65.275-55.5,110.549-55.5c45.285,0,86.615,20.74,110.583,55.488c9.234,13.419,5.879,31.803-7.551,41.061
			c-13.442,9.251-31.808,5.879-41.065-7.545c-12.75-18.486-36.5-29.976-61.979-29.976s-49.204,11.489-61.943,29.963
			C272.261,509.307,263.05,513.767,253.654,513.767z"/>
	</g>
	<g>
		<path d="M600.553,513.767c-5.753,0-11.587-1.688-16.717-5.204c-13.42-9.258-16.799-27.629-7.553-41.048
			c23.945-34.759,65.287-55.5,110.562-55.5c45.273,0,86.604,20.74,110.571,55.488c9.234,13.419,5.88,31.803-7.552,41.061
			c-13.431,9.251-31.796,5.879-41.064-7.545c-12.75-18.486-36.488-29.976-61.968-29.976c-25.479,0-49.216,11.489-61.954,29.963
			C619.158,509.307,609.948,513.767,600.553,513.767z"/>
	</g>
</g>
</svg>
