<?xml version="1.0" encoding="utf-8"?>
<!-- Generator: Adobe Illustrator 15.0.0, SVG Export Plug-In . SVG Version: 6.00 Build 0)  -->
<!DOCTYPE svg PUBLIC "-//W3C//DTD SVG 1.1//EN" "http://www.w3.org/Graphics/SVG/1.1/DTD/svg11.dtd">
<svg version="1.1" id="レイヤー_1" xmlns="http://www.w3.org/2000/svg" xmlns:xlink="http://www.w3.org/1999/xlink" x="0px"
	 y="0px" width="1024px" height="1024px" viewBox="0 0 1024 1024" enable-background="new 0 0 1024 1024" xml:space="preserve">
<path d="M893.983,962.822L758.131,826.947c57.938-10.361,101.937-60.889,101.937-121.801V137.445
	c0-68.419-55.451-123.865-123.865-123.865h-433.53c-68.414,0-123.864,55.446-123.864,123.865v567.701
	c0,60.912,44.01,111.439,101.946,121.801L144.891,962.822c-11.616,11.613-11.616,30.453,0,42.047
	c5.808,5.809,13.416,8.711,21.022,8.711c7.62,0,15.216-2.902,21.035-8.711l139.732-139.732h385.558l139.696,139.732
	c5.808,5.809,13.428,8.711,21.035,8.711s15.216-2.902,21.023-8.711C905.61,993.254,905.61,974.414,893.983,962.822z M287.2,132.271
	h464.495v268.376H287.2V132.271z M338.808,694.811c-24.229,0-43.859-19.605-43.859-43.859c0-24.229,19.63-43.859,43.859-43.859
	c24.229,0,43.87,19.631,43.87,43.859S363.048,694.811,338.808,694.811z M700.077,607.092c24.229,0,43.87,19.631,43.87,43.859
	s-19.629,43.859-43.87,43.859s-43.859-19.605-43.859-43.859C656.218,626.721,675.847,607.092,700.077,607.092z"/>
</svg>
