<?xml version="1.0" encoding="utf-8"?>
<!-- Generator: Adobe Illustrator 15.0.0, SVG Export Plug-In . SVG Version: 6.00 Build 0)  -->
<!DOCTYPE svg PUBLIC "-//W3C//DTD SVG 1.1//EN" "http://www.w3.org/Graphics/SVG/1.1/DTD/svg11.dtd">
<svg version="1.1" id="レイヤー_1" xmlns="http://www.w3.org/2000/svg" xmlns:xlink="http://www.w3.org/1999/xlink" x="0px"
	 y="0px" width="1024px" height="1024px" viewBox="0 0 1024 1024" enable-background="new 0 0 1024 1024" xml:space="preserve">
<g>
	<path d="M512.6,13.978c-275.701,0-500.006,224.305-500.006,500C12.594,789.695,236.899,1014,512.6,1014
		s499.995-224.305,499.995-500.022C1012.582,238.282,788.288,13.978,512.6,13.978z M512.6,954.95
		c-243.155,0-440.978-197.836-440.978-440.983c0-243.145,197.822-440.974,440.978-440.974
		c243.143,0,440.966,197.818,440.966,440.974C953.556,757.139,755.732,954.95,512.6,954.95z"/>
	<path d="M512.577,628.914c-191.541,0-265.037,11.092-291.253,44.018c-7.31,9.178-8.485,21.836-2.997,32.212
		c61.609,116.396,174.361,188.704,294.25,188.704c119.876,0,232.651-72.31,294.272-188.704c5.488-10.376,4.312-23.013-2.998-32.212
		C777.637,640.028,704.116,628.914,512.577,628.914z M512.577,834.819c-90.824,0-174.189-49.021-227.673-132.559
		c27.958-7.634,91.286-14.319,227.673-14.319c136.776,0,200.082,6.733,227.764,14.204
		C686.835,785.73,603.436,834.819,512.577,834.819z"/>
	<path d="M256.994,498.771c17.111,0,34.227-0.242,51.338-0.363c-19.282,13.471-62.271,32.475-53.519,62.005
		c12.531,42.278,53.153,10.248,72.988-3.606c26.972-18.841,53.945-37.684,80.917-56.523c11.634-8.126,24.067-16.069,23.905-32.298
		c-0.083-16.194-12.54-23.931-24.269-31.874c-27.269-18.466-54.537-36.932-81.805-55.398c-20.058-13.583-61.172-44.959-73.062-2.56
		c-8.32,29.677,34.926,48.041,54.415,61.239c-16.639,0.118-33.277,0.236-49.917,0.355
		C219.394,440.021,218.295,498.771,256.994,498.771C257.075,498.771,240.785,498.771,256.994,498.771z"/>
	<path d="M593.971,475.609c3.999,12.873,16.201,18.967,26.585,25.999c27.613,18.7,55.226,37.399,82.839,56.099
		c19.746,13.372,57.12,39.119,68.286-0.662c8.325-29.661-34.939-48.035-54.421-61.226c25.037-0.178,80.718,9.261,80.414-30.09
		c-0.278-39.342-55.879-29.115-80.863-28.938c19.282-13.475,62.284-32.492,53.52-62.029c-13.23-44.59-57.852-6.96-77.919,7.06
		c-26.39,18.438-52.779,36.875-79.17,55.313C599.988,446.396,588.633,457.439,593.971,475.609
		C594.444,477.131,593.798,475.021,593.971,475.609z"/>
</g>
</svg>
