<?xml version="1.0" encoding="utf-8"?>
<!-- Generator: Adobe Illustrator 15.0.0, SVG Export Plug-In . SVG Version: 6.00 Build 0)  -->
<!DOCTYPE svg PUBLIC "-//W3C//DTD SVG 1.1//EN" "http://www.w3.org/Graphics/SVG/1.1/DTD/svg11.dtd">
<svg version="1.1" id="レイヤー_1" xmlns="http://www.w3.org/2000/svg" xmlns:xlink="http://www.w3.org/1999/xlink" x="0px"
	 y="0px" width="1024px" height="1024px" viewBox="0 0 1024 1024" enable-background="new 0 0 1024 1024" xml:space="preserve">
<path d="M512.361,1011c-275.706,0-500.006-224.301-500.006-500c0-275.688,224.3-499.989,500.006-499.989
	c275.693,0,499.995,224.3,499.995,499.989C1012.354,786.699,788.053,1011,512.361,1011z M512.361,70.049
	c-243.149,0-440.979,197.813-440.979,440.962c0,243.155,197.831,440.985,440.979,440.985c243.137,0,440.968-197.83,440.968-440.985
	C953.328,267.873,755.497,70.049,512.361,70.049z"/>
<g>
	<g>
		<path d="M425.204,514.418c-9.385,0-18.596-4.456-24.326-12.769c-12.75-18.485-36.511-29.975-61.988-29.975
			c-25.468,0-49.217,11.488-61.967,29.975c-9.257,13.413-27.656,16.779-41.042,7.545c-13.431-9.258-16.797-27.639-7.552-41.059
			c23.957-34.742,65.287-55.487,110.548-55.487c45.272,0,86.614,20.746,110.57,55.487c9.258,13.42,5.88,31.801-7.54,41.059
			C436.824,512.722,430.968,514.418,425.204,514.418z"/>
	</g>
	<g>
		<path d="M772.098,514.418c-9.385,0-18.596-4.456-24.324-12.769c-12.751-18.485-36.512-29.975-61.989-29.975
			c-25.467,0-49.216,11.488-61.966,29.975c-9.246,13.413-27.646,16.779-41.042,7.545c-13.432-9.258-16.798-27.639-7.552-41.059
			c23.956-34.742,65.286-55.487,110.548-55.487c45.272,0,86.613,20.746,110.569,55.487c9.258,13.42,5.88,31.801-7.539,41.059
			C783.708,512.722,777.863,514.418,772.098,514.418z"/>
	</g>
</g>
<path d="M512.361,892.532c-18.192,0-37.146-1.938-56.329-5.766c-0.023-0.021-0.046-0.021-0.069-0.021
	c-39.347-7.886-76.999-23.864-111.919-47.521c-0.012-0.022-0.035-0.022-0.035-0.022c-56.352-38.184-103.365-94.651-135.944-163.291
	c-4.335-9.131-3.679-19.875,1.729-28.406c5.407-8.555,14.826-13.742,24.937-13.742h555.238c10.11,0,19.541,5.165,24.948,13.742
	c5.406,8.555,6.052,19.275,1.718,28.406c-32.084,67.627-78.164,123.379-133.374,161.539c-1.511,1.244-3.146,2.375-4.898,3.319
	c-34.311,22.851-71.179,38.298-109.614,45.998c0,0-0.012,0-0.022,0C549.516,890.572,530.563,892.532,512.361,892.532z
	 M491.285,832.445c14.227,1.405,27.911,1.405,42.137,0V692.765h-42.137V832.445z M592.448,692.765v126.101
	c14.411-5.305,28.487-12.082,42.148-20.244V692.765H592.448z M390.112,798.597c13.649,8.162,27.75,14.941,42.147,20.269V692.765
	h-42.147V798.597z M693.624,692.765v59.025c17.119-17.431,32.718-37.214,46.506-59.025H693.624z M284.578,692.765
	c13.788,21.812,29.375,41.596,46.495,59.025v-59.025H284.578z"/>
</svg>
