<?xml version="1.0" encoding="utf-8"?>
<!-- Generator: Adobe Illustrator 15.0.0, SVG Export Plug-In . SVG Version: 6.00 Build 0)  -->
<!DOCTYPE svg PUBLIC "-//W3C//DTD SVG 1.1//EN" "http://www.w3.org/Graphics/SVG/1.1/DTD/svg11.dtd">
<svg version="1.1" id="レイヤー_1" xmlns="http://www.w3.org/2000/svg" xmlns:xlink="http://www.w3.org/1999/xlink" x="0px"
	 y="0px" width="1024px" height="1024px" viewBox="0 0 1024 1024" enable-background="new 0 0 1024 1024" xml:space="preserve">
<path d="M800.038,969.876l-104.572-104.57c44.603-7.993,78.469-46.877,78.469-93.753V334.552c0-52.664-42.685-95.35-95.338-95.35
	H344.9c-52.676,0-95.35,42.686-95.35,95.35v437.001c0,46.876,33.866,85.76,78.469,93.753l-104.572,104.57
	c-8.945,8.934-8.945,23.426,0,32.383c4.456,4.456,10.313,6.707,16.17,6.707c5.855,0,11.713-2.251,16.191-6.707l107.546-107.556
	h296.788l107.535,107.556c4.479,4.456,10.323,6.707,16.181,6.707c5.856,0,11.713-2.251,16.182-6.707
	C808.995,993.302,808.995,978.811,800.038,969.876z M332.968,330.59h357.538v206.581H332.968V330.59z M372.714,763.605
	c-18.661,0-33.774-15.136-33.774-33.783c0-18.627,15.113-33.764,33.774-33.764c18.649,0,33.751,15.137,33.751,33.764
	C406.465,748.47,391.364,763.605,372.714,763.605z M650.794,696.059c18.649,0,33.763,15.137,33.763,33.764
	c0,18.647-15.113,33.784-33.763,33.784s-33.774-15.137-33.774-33.784C617.02,711.195,632.145,696.059,650.794,696.059z"/>
<path d="M11.732,12.894v1000h131.283V490.479c0-203.641,165.091-368.719,368.699-368.719c203.643,0,368.746,165.078,368.746,368.719
	v522.416h131.271v-1000H11.732L11.732,12.894z"/>
</svg>
