<?xml version="1.0" encoding="utf-8"?>
<!-- Generator: Adobe Illustrator 15.0.0, SVG Export Plug-In . SVG Version: 6.00 Build 0)  -->
<!DOCTYPE svg PUBLIC "-//W3C//DTD SVG 1.1//EN" "http://www.w3.org/Graphics/SVG/1.1/DTD/svg11.dtd">
<svg version="1.1" id="レイヤー_1" xmlns="http://www.w3.org/2000/svg" xmlns:xlink="http://www.w3.org/1999/xlink" x="0px"
	 y="0px" width="1024px" height="1024px" viewBox="0 0 1024 1024" enable-background="new 0 0 1024 1024" xml:space="preserve">
<path d="M626.14,624.996l384.772-91.463v-241.59h-69.811L871.14,441.174l-298.207,2.248v-79.229H451.159v-43.155h358.048
	c16.431,0,29.746-13.316,29.746-29.747c0-16.436-13.315-29.746-29.746-29.746H40.66c-16.431,0-29.746,13.31-29.746,29.746
	c0,16.43,13.315,29.747,29.746,29.747h351.007v43.155h-53.334l-41.924,52.503C177.366,434.643,89.312,498.586,89.312,574.73
	c0,60.491,55.612,113.268,138.158,141.41v57.284h-43.783c-17.999,0-59.83-10.875-74.296-44.524
	c-6.483-15.105-24.018-22.078-39.077-15.57c-15.105,6.481-22.065,23.981-15.57,39.063c25.4,59.074,91.028,80.524,128.943,80.524
	h73.529h213.731h143.457c16.432,0,29.746-13.315,29.746-29.746s-13.314-29.747-29.746-29.747h-113.71v-57.052
	C559.629,696.411,604.876,663.922,626.14,624.996z M143.03,580.794c0-70.322,92.098-127.339,220.959-127.339l-56.703,127.339H143.03
	z M441.19,773.425H286.95V731.2c24.563,4.274,50.557,6.6,77.457,6.6c26.667,0,52.417-2.276,76.794-6.483v42.108H441.19z
	 M412.443,580.794h-56.704l55.867-127.339h56.729L412.443,580.794z"/>
</svg>
